<?xml version="1.0" encoding="utf-8" standalone="no"?>
<!DOCTYPE svg PUBLIC "-//W3C//DTD SVG 1.1//EN"
  "http://www.w3.org/Graphics/SVG/1.1/DTD/svg11.dtd">
<svg xmlns:xlink="http://www.w3.org/1999/xlink" width="460.8pt" height="345.6pt" viewBox="0 0 460.8 345.6" xmlns="http://www.w3.org/2000/svg" version="1.1">
 <metadata>
  <rdf:RDF xmlns:dc="http://purl.org/dc/elements/1.1/" xmlns:cc="http://creativecommons.org/ns#" xmlns:rdf="http://www.w3.org/1999/02/22-rdf-syntax-ns#">
   <cc:Work>
    <dc:type rdf:resource="http://purl.org/dc/dcmitype/StillImage"/>
    <dc:date>2022-12-28T18:33:01.414371</dc:date>
    <dc:format>image/svg+xml</dc:format>
    <dc:creator>
     <cc:Agent>
      <dc:title>Matplotlib v3.6.2, https://matplotlib.org/</dc:title>
     </cc:Agent>
    </dc:creator>
   </cc:Work>
  </rdf:RDF>
 </metadata>
 <defs>
  <style type="text/css">*{stroke-linejoin: round; stroke-linecap: butt}</style>
 </defs>
 <g id="figure_1">
  <g id="patch_1">
   <path d="M 0 345.6 
L 460.8 345.6 
L 460.8 0 
L 0 0 
z
" style="fill: #ffffff"/>
  </g>
  <g id="axes_1">
   <g id="patch_2">
    <path d="M 57.6 307.584 
L 219.927273 307.584 
L 219.927273 41.472 
L 57.6 41.472 
z
" style="fill: #ffffff"/>
   </g>
   <g id="Quiver_1">
    <path d="M 65.408948 295.057565 
L 71.734687 301.383304 
L 72.165122 300.091998 
L 75.178168 305.687656 
L 69.582511 302.674609 
L 70.873816 302.244174 
L 64.548077 295.918435 
L 65.408948 295.057565 
" clip-path="url(#p186403ef14)"/>
    <path d="M 90.080045 295.150339 
L 93.840866 300.791569 
L 94.516188 299.609755 
L 96.373324 305.687656 
L 91.477238 301.635722 
L 92.827882 301.466892 
L 89.067062 295.825661 
L 90.080045 295.150339 
" clip-path="url(#p186403ef14)"/>
    <path d="M 114.746084 295.295504 
L 116.413502 300.297755 
L 117.375984 299.335272 
L 117.56848 305.687656 
L 113.911047 300.490251 
L 115.258523 300.682748 
L 113.591106 295.680496 
L 114.746084 295.295504 
" clip-path="url(#p186403ef14)"/>
    <path d="M 139.372364 295.488 
L 139.372364 300.20911 
L 140.589818 299.600383 
L 138.763636 305.687656 
L 136.937455 299.600383 
L 138.154909 300.20911 
L 138.154909 295.488 
L 139.372364 295.488 
" clip-path="url(#p186403ef14)"/>
    <path d="M 163.936167 295.680496 
L 162.26875 300.682748 
L 163.616225 300.490251 
L 159.958792 305.687656 
L 160.151289 299.335272 
L 161.113771 300.297755 
L 162.781188 295.295504 
L 163.936167 295.680496 
" clip-path="url(#p186403ef14)"/>
    <path d="M 188.460211 295.825661 
L 184.69939 301.466892 
L 186.050035 301.635722 
L 181.153948 305.687656 
L 183.011085 299.609755 
L 183.686407 300.791569 
L 187.447227 295.150339 
L 188.460211 295.825661 
" clip-path="url(#p186403ef14)"/>
    <path d="M 212.979196 295.918435 
L 206.653456 302.244174 
L 207.944762 302.674609 
L 202.349105 305.687656 
L 205.362151 300.091998 
L 205.792586 301.383304 
L 212.118325 295.057565 
L 212.979196 295.918435 
" clip-path="url(#p186403ef14)"/>
    <path d="M 65.316174 254.661508 
L 70.957404 258.422329 
L 71.126235 257.071684 
L 75.178168 261.967771 
L 69.100268 260.110634 
L 70.282082 259.435312 
L 64.640851 255.674492 
L 65.316174 254.661508 
" clip-path="url(#p186403ef14)"/>
    <path d="M 90.003989 254.737565 
L 92.929843 257.663419 
L 93.360278 256.372113 
L 96.373324 261.967771 
L 90.777667 258.954724 
L 92.068972 258.524289 
L 89.143119 255.598435 
L 90.003989 254.737565 
" clip-path="url(#p186403ef14)"/>
    <path d="M 114.713057 254.895769 
L 115.662863 256.795379 
L 116.479556 255.706455 
L 117.56848 261.967771 
L 113.212782 257.339842 
L 114.573938 257.339842 
L 113.624133 255.440231 
L 114.713057 254.895769 
" clip-path="url(#p186403ef14)"/>
    <path d="M 139.372364 255.168 
L 139.372364 256.489225 
L 140.589818 255.880498 
L 138.763636 261.967771 
L 136.937455 255.880498 
L 138.154909 256.489225 
L 138.154909 255.168 
L 139.372364 255.168 
" clip-path="url(#p186403ef14)"/>
    <path d="M 163.90314 255.440231 
L 162.953335 257.339842 
L 164.31449 257.339842 
L 159.958792 261.967771 
L 161.047717 255.706455 
L 161.86441 256.795379 
L 162.814215 254.895769 
L 163.90314 255.440231 
" clip-path="url(#p186403ef14)"/>
    <path d="M 188.384154 255.598435 
L 185.4583 258.524289 
L 186.749606 258.954724 
L 181.153948 261.967771 
L 184.166995 256.372113 
L 184.59743 257.663419 
L 187.523284 254.737565 
L 188.384154 255.598435 
" clip-path="url(#p186403ef14)"/>
    <path d="M 212.886421 255.674492 
L 207.245191 259.435312 
L 208.427005 260.110634 
L 202.349105 261.967771 
L 206.401038 257.071684 
L 206.569869 258.422329 
L 212.211099 254.661508 
L 212.886421 255.674492 
" clip-path="url(#p186403ef14)"/>
    <path d="M 65.171009 214.270511 
L 70.17326 215.937928 
L 69.980764 214.590452 
L 75.178168 218.247885 
L 68.825785 218.055389 
L 69.788267 217.092906 
L 64.786016 215.425489 
L 65.171009 214.270511 
" clip-path="url(#p186403ef14)"/>
    <path d="M 89.845785 214.303538 
L 91.745395 215.253343 
L 91.745395 213.892187 
L 96.373324 218.247885 
L 90.112009 217.158961 
L 91.200933 216.342267 
L 89.301323 215.392462 
L 89.845785 214.303538 
" clip-path="url(#p186403ef14)"/>
    <path d="M 114.508584 214.508011 
L 114.848572 214.848 
L 115.188561 213.828034 
L 117.56848 218.247885 
L 113.148629 215.867966 
L 114.168595 215.527977 
L 113.828607 215.187989 
L 114.508584 214.508011 
" clip-path="url(#p186403ef14)"/>
    <path d="M 139.103625 214.848 
L 139.103625 215.187989 
L 139.783602 214.848 
L 138.763636 218.247885 
L 137.743671 214.848 
L 138.423648 215.187989 
L 138.423648 214.848 
L 139.103625 214.848 
" clip-path="url(#p186403ef14)"/>
    <path d="M 163.698666 215.187989 
L 163.358678 215.527977 
L 164.378643 215.867966 
L 159.958792 218.247885 
L 162.338712 213.828034 
L 162.678701 214.848 
L 163.018689 214.508011 
L 163.698666 215.187989 
" clip-path="url(#p186403ef14)"/>
    <path d="M 188.22595 215.392462 
L 186.32634 216.342267 
L 187.415264 217.158961 
L 181.153948 218.247885 
L 185.781877 213.892187 
L 185.781877 215.253343 
L 187.681488 214.303538 
L 188.22595 215.392462 
" clip-path="url(#p186403ef14)"/>
    <path d="M 212.741257 215.425489 
L 207.739006 217.092906 
L 208.701488 218.055389 
L 202.349105 218.247885 
L 207.546509 214.590452 
L 207.354013 215.937928 
L 212.356264 214.270511 
L 212.741257 215.425489 
" clip-path="url(#p186403ef14)"/>
    <path d="M 64.978512 173.919273 
L 69.699623 173.919273 
L 69.090895 172.701818 
L 75.178168 174.528 
L 69.090895 176.354182 
L 69.699623 175.136727 
L 64.978512 175.136727 
L 64.978512 173.919273 
" clip-path="url(#p186403ef14)"/>
    <path d="M 89.573554 173.919273 
L 90.894779 173.919273 
L 90.286052 172.701818 
L 96.373324 174.528 
L 90.286052 176.354182 
L 90.894779 175.136727 
L 89.573554 175.136727 
L 89.573554 173.919273 
" clip-path="url(#p186403ef14)"/>
    <path d="M 114.168595 174.188011 
L 114.508584 174.188011 
L 114.168595 173.508034 
L 117.56848 174.528 
L 114.168595 175.547966 
L 114.508584 174.867989 
L 114.168595 174.867989 
L 114.168595 174.188011 
" clip-path="url(#p186403ef14)"/>
    <path d="M 139.372364 174.528 
L 139.068 174.000827 
L 138.459273 174.000827 
L 138.154909 174.528 
L 138.459273 175.055173 
L 139.068 175.055173 
L 139.372364 174.528 
L 139.068 174.000827 
" clip-path="url(#p186403ef14)"/>
    <path d="M 163.358678 174.867989 
L 163.018689 174.867989 
L 163.358678 175.547966 
L 159.958792 174.528 
L 163.358678 173.508034 
L 163.018689 174.188011 
L 163.358678 174.188011 
L 163.358678 174.867989 
" clip-path="url(#p186403ef14)"/>
    <path d="M 187.953719 175.136727 
L 186.632494 175.136727 
L 187.241221 176.354182 
L 181.153948 174.528 
L 187.241221 172.701818 
L 186.632494 173.919273 
L 187.953719 173.919273 
L 187.953719 175.136727 
" clip-path="url(#p186403ef14)"/>
    <path d="M 212.54876 175.136727 
L 207.82765 175.136727 
L 208.436377 176.354182 
L 202.349105 174.528 
L 208.436377 172.701818 
L 207.82765 173.919273 
L 212.54876 173.919273 
L 212.54876 175.136727 
" clip-path="url(#p186403ef14)"/>
    <path d="M 64.786016 133.630511 
L 69.788267 131.963094 
L 68.825785 131.000611 
L 75.178168 130.808115 
L 69.980764 134.465548 
L 70.17326 133.118072 
L 65.171009 134.785489 
L 64.786016 133.630511 
" clip-path="url(#p186403ef14)"/>
    <path d="M 89.301323 133.663538 
L 91.200933 132.713733 
L 90.112009 131.897039 
L 96.373324 130.808115 
L 91.745395 135.163813 
L 91.745395 133.802657 
L 89.845785 134.752462 
L 89.301323 133.663538 
" clip-path="url(#p186403ef14)"/>
    <path d="M 113.828607 133.868011 
L 114.168595 133.528023 
L 113.148629 133.188034 
L 117.56848 130.808115 
L 115.188561 135.227966 
L 114.848572 134.208 
L 114.508584 134.547989 
L 113.828607 133.868011 
" clip-path="url(#p186403ef14)"/>
    <path d="M 138.423648 134.208 
L 138.423648 133.868011 
L 137.743671 134.208 
L 138.763636 130.808115 
L 139.783602 134.208 
L 139.103625 133.868011 
L 139.103625 134.208 
L 138.423648 134.208 
" clip-path="url(#p186403ef14)"/>
    <path d="M 163.018689 134.547989 
L 162.678701 134.208 
L 162.338712 135.227966 
L 159.958792 130.808115 
L 164.378643 133.188034 
L 163.358678 133.528023 
L 163.698666 133.868011 
L 163.018689 134.547989 
" clip-path="url(#p186403ef14)"/>
    <path d="M 187.681488 134.752462 
L 185.781877 133.802657 
L 185.781877 135.163813 
L 181.153948 130.808115 
L 187.415264 131.897039 
L 186.32634 132.713733 
L 188.22595 133.663538 
L 187.681488 134.752462 
" clip-path="url(#p186403ef14)"/>
    <path d="M 212.356264 134.785489 
L 207.354013 133.118072 
L 207.546509 134.465548 
L 202.349105 130.808115 
L 208.701488 131.000611 
L 207.739006 131.963094 
L 212.741257 133.630511 
L 212.356264 134.785489 
" clip-path="url(#p186403ef14)"/>
    <path d="M 64.640851 93.381508 
L 70.282082 89.620688 
L 69.100268 88.945366 
L 75.178168 87.088229 
L 71.126235 91.984316 
L 70.957404 90.633671 
L 65.316174 94.394492 
L 64.640851 93.381508 
" clip-path="url(#p186403ef14)"/>
    <path d="M 89.143119 93.457565 
L 92.068972 90.531711 
L 90.777667 90.101276 
L 96.373324 87.088229 
L 93.360278 92.683887 
L 92.929843 91.392581 
L 90.003989 94.318435 
L 89.143119 93.457565 
" clip-path="url(#p186403ef14)"/>
    <path d="M 113.624133 93.615769 
L 114.573938 91.716158 
L 113.212782 91.716158 
L 117.56848 87.088229 
L 116.479556 93.349545 
L 115.662863 92.260621 
L 114.713057 94.160231 
L 113.624133 93.615769 
" clip-path="url(#p186403ef14)"/>
    <path d="M 138.154909 93.888 
L 138.154909 92.566775 
L 136.937455 93.175502 
L 138.763636 87.088229 
L 140.589818 93.175502 
L 139.372364 92.566775 
L 139.372364 93.888 
L 138.154909 93.888 
" clip-path="url(#p186403ef14)"/>
    <path d="M 162.814215 94.160231 
L 161.86441 92.260621 
L 161.047717 93.349545 
L 159.958792 87.088229 
L 164.31449 91.716158 
L 162.953335 91.716158 
L 163.90314 93.615769 
L 162.814215 94.160231 
" clip-path="url(#p186403ef14)"/>
    <path d="M 187.523284 94.318435 
L 184.59743 91.392581 
L 184.166995 92.683887 
L 181.153948 87.088229 
L 186.749606 90.101276 
L 185.4583 90.531711 
L 188.384154 93.457565 
L 187.523284 94.318435 
" clip-path="url(#p186403ef14)"/>
    <path d="M 212.211099 94.394492 
L 206.569869 90.633671 
L 206.401038 91.984316 
L 202.349105 87.088229 
L 208.427005 88.945366 
L 207.245191 89.620688 
L 212.886421 93.381508 
L 212.211099 94.394492 
" clip-path="url(#p186403ef14)"/>
    <path d="M 64.548077 53.137565 
L 70.873816 46.811826 
L 69.582511 46.381391 
L 75.178168 43.368344 
L 72.165122 48.964002 
L 71.734687 47.672696 
L 65.408948 53.998435 
L 64.548077 53.137565 
" clip-path="url(#p186403ef14)"/>
    <path d="M 89.067062 53.230339 
L 92.827882 47.589108 
L 91.477238 47.420278 
L 96.373324 43.368344 
L 94.516188 49.446245 
L 93.840866 48.264431 
L 90.080045 53.905661 
L 89.067062 53.230339 
" clip-path="url(#p186403ef14)"/>
    <path d="M 113.591106 53.375504 
L 115.258523 48.373252 
L 113.911047 48.565749 
L 117.56848 43.368344 
L 117.375984 49.720728 
L 116.413502 48.758245 
L 114.746084 53.760496 
L 113.591106 53.375504 
" clip-path="url(#p186403ef14)"/>
    <path d="M 138.154909 53.568 
L 138.154909 48.84689 
L 136.937455 49.455617 
L 138.763636 43.368344 
L 140.589818 49.455617 
L 139.372364 48.84689 
L 139.372364 53.568 
L 138.154909 53.568 
" clip-path="url(#p186403ef14)"/>
    <path d="M 162.781188 53.760496 
L 161.113771 48.758245 
L 160.151289 49.720728 
L 159.958792 43.368344 
L 163.616225 48.565749 
L 162.26875 48.373252 
L 163.936167 53.375504 
L 162.781188 53.760496 
" clip-path="url(#p186403ef14)"/>
    <path d="M 187.447227 53.905661 
L 183.686407 48.264431 
L 183.011085 49.446245 
L 181.153948 43.368344 
L 186.050035 47.420278 
L 184.69939 47.589108 
L 188.460211 53.230339 
L 187.447227 53.905661 
" clip-path="url(#p186403ef14)"/>
    <path d="M 212.118325 53.998435 
L 205.792586 47.672696 
L 205.362151 48.964002 
L 202.349105 43.368344 
L 207.944762 46.381391 
L 206.653456 46.811826 
L 212.979196 53.137565 
L 212.118325 53.998435 
" clip-path="url(#p186403ef14)"/>
   </g>
   <g id="matplotlib.axis_1">
    <g id="xtick_1">
     <g id="line2d_1">
      <defs>
       <path id="m1c12df62c9" d="M 0 0 
L 0 3.5 
" style="stroke: #000000; stroke-width: 0.8"/>
      </defs>
      <g>
       <use xlink:href="#m1c12df62c9" x="89.573554" y="307.584" style="stroke: #000000; stroke-width: 0.8"/>
      </g>
     </g>
     <g id="text_1">
      <!-- −2 -->
      <g transform="translate(82.20246 322.182437) scale(0.1 -0.1)">
       <defs>
        <path id="DejaVuSans-2212" d="M 678 2272 
L 4684 2272 
L 4684 1741 
L 678 1741 
L 678 2272 
z
" transform="scale(0.015625)"/>
        <path id="DejaVuSans-32" d="M 1228 531 
L 3431 531 
L 3431 0 
L 469 0 
L 469 531 
Q 828 903 1448 1529 
Q 2069 2156 2228 2338 
Q 2531 2678 2651 2914 
Q 2772 3150 2772 3378 
Q 2772 3750 2511 3984 
Q 2250 4219 1831 4219 
Q 1534 4219 1204 4116 
Q 875 4013 500 3803 
L 500 4441 
Q 881 4594 1212 4672 
Q 1544 4750 1819 4750 
Q 2544 4750 2975 4387 
Q 3406 4025 3406 3419 
Q 3406 3131 3298 2873 
Q 3191 2616 2906 2266 
Q 2828 2175 2409 1742 
Q 1991 1309 1228 531 
z
" transform="scale(0.015625)"/>
       </defs>
       <use xlink:href="#DejaVuSans-2212"/>
       <use xlink:href="#DejaVuSans-32" x="83.789062"/>
      </g>
     </g>
    </g>
    <g id="xtick_2">
     <g id="line2d_2">
      <g>
       <use xlink:href="#m1c12df62c9" x="138.763636" y="307.584" style="stroke: #000000; stroke-width: 0.8"/>
      </g>
     </g>
     <g id="text_2">
      <!-- 0 -->
      <g transform="translate(135.582386 322.182437) scale(0.1 -0.1)">
       <defs>
        <path id="DejaVuSans-30" d="M 2034 4250 
Q 1547 4250 1301 3770 
Q 1056 3291 1056 2328 
Q 1056 1369 1301 889 
Q 1547 409 2034 409 
Q 2525 409 2770 889 
Q 3016 1369 3016 2328 
Q 3016 3291 2770 3770 
Q 2525 4250 2034 4250 
z
M 2034 4750 
Q 2819 4750 3233 4129 
Q 3647 3509 3647 2328 
Q 3647 1150 3233 529 
Q 2819 -91 2034 -91 
Q 1250 -91 836 529 
Q 422 1150 422 2328 
Q 422 3509 836 4129 
Q 1250 4750 2034 4750 
z
" transform="scale(0.015625)"/>
       </defs>
       <use xlink:href="#DejaVuSans-30"/>
      </g>
     </g>
    </g>
    <g id="xtick_3">
     <g id="line2d_3">
      <g>
       <use xlink:href="#m1c12df62c9" x="187.953719" y="307.584" style="stroke: #000000; stroke-width: 0.8"/>
      </g>
     </g>
     <g id="text_3">
      <!-- 2 -->
      <g transform="translate(184.772469 322.182437) scale(0.1 -0.1)">
       <use xlink:href="#DejaVuSans-32"/>
      </g>
     </g>
    </g>
   </g>
   <g id="matplotlib.axis_2">
    <g id="ytick_1">
     <g id="line2d_4">
      <defs>
       <path id="m4865c8875f" d="M 0 0 
L -3.5 0 
" style="stroke: #000000; stroke-width: 0.8"/>
      </defs>
      <g>
       <use xlink:href="#m4865c8875f" x="57.6" y="295.488" style="stroke: #000000; stroke-width: 0.8"/>
      </g>
     </g>
     <g id="text_4">
      <!-- −3 -->
      <g transform="translate(35.857813 299.287219) scale(0.1 -0.1)">
       <defs>
        <path id="DejaVuSans-33" d="M 2597 2516 
Q 3050 2419 3304 2112 
Q 3559 1806 3559 1356 
Q 3559 666 3084 287 
Q 2609 -91 1734 -91 
Q 1441 -91 1130 -33 
Q 819 25 488 141 
L 488 750 
Q 750 597 1062 519 
Q 1375 441 1716 441 
Q 2309 441 2620 675 
Q 2931 909 2931 1356 
Q 2931 1769 2642 2001 
Q 2353 2234 1838 2234 
L 1294 2234 
L 1294 2753 
L 1863 2753 
Q 2328 2753 2575 2939 
Q 2822 3125 2822 3475 
Q 2822 3834 2567 4026 
Q 2313 4219 1838 4219 
Q 1578 4219 1281 4162 
Q 984 4106 628 3988 
L 628 4550 
Q 988 4650 1302 4700 
Q 1616 4750 1894 4750 
Q 2613 4750 3031 4423 
Q 3450 4097 3450 3541 
Q 3450 3153 3228 2886 
Q 3006 2619 2597 2516 
z
" transform="scale(0.015625)"/>
       </defs>
       <use xlink:href="#DejaVuSans-2212"/>
       <use xlink:href="#DejaVuSans-33" x="83.789062"/>
      </g>
     </g>
    </g>
    <g id="ytick_2">
     <g id="line2d_5">
      <g>
       <use xlink:href="#m4865c8875f" x="57.6" y="255.168" style="stroke: #000000; stroke-width: 0.8"/>
      </g>
     </g>
     <g id="text_5">
      <!-- −2 -->
      <g transform="translate(35.857813 258.967219) scale(0.1 -0.1)">
       <use xlink:href="#DejaVuSans-2212"/>
       <use xlink:href="#DejaVuSans-32" x="83.789062"/>
      </g>
     </g>
    </g>
    <g id="ytick_3">
     <g id="line2d_6">
      <g>
       <use xlink:href="#m4865c8875f" x="57.6" y="214.848" style="stroke: #000000; stroke-width: 0.8"/>
      </g>
     </g>
     <g id="text_6">
      <!-- −1 -->
      <g transform="translate(35.857813 218.647219) scale(0.1 -0.1)">
       <defs>
        <path id="DejaVuSans-31" d="M 794 531 
L 1825 531 
L 1825 4091 
L 703 3866 
L 703 4441 
L 1819 4666 
L 2450 4666 
L 2450 531 
L 3481 531 
L 3481 0 
L 794 0 
L 794 531 
z
" transform="scale(0.015625)"/>
       </defs>
       <use xlink:href="#DejaVuSans-2212"/>
       <use xlink:href="#DejaVuSans-31" x="83.789062"/>
      </g>
     </g>
    </g>
    <g id="ytick_4">
     <g id="line2d_7">
      <g>
       <use xlink:href="#m4865c8875f" x="57.6" y="174.528" style="stroke: #000000; stroke-width: 0.8"/>
      </g>
     </g>
     <g id="text_7">
      <!-- 0 -->
      <g transform="translate(44.2375 178.327219) scale(0.1 -0.1)">
       <use xlink:href="#DejaVuSans-30"/>
      </g>
     </g>
    </g>
    <g id="ytick_5">
     <g id="line2d_8">
      <g>
       <use xlink:href="#m4865c8875f" x="57.6" y="134.208" style="stroke: #000000; stroke-width: 0.8"/>
      </g>
     </g>
     <g id="text_8">
      <!-- 1 -->
      <g transform="translate(44.2375 138.007219) scale(0.1 -0.1)">
       <use xlink:href="#DejaVuSans-31"/>
      </g>
     </g>
    </g>
    <g id="ytick_6">
     <g id="line2d_9">
      <g>
       <use xlink:href="#m4865c8875f" x="57.6" y="93.888" style="stroke: #000000; stroke-width: 0.8"/>
      </g>
     </g>
     <g id="text_9">
      <!-- 2 -->
      <g transform="translate(44.2375 97.687219) scale(0.1 -0.1)">
       <use xlink:href="#DejaVuSans-32"/>
      </g>
     </g>
    </g>
    <g id="ytick_7">
     <g id="line2d_10">
      <g>
       <use xlink:href="#m4865c8875f" x="57.6" y="53.568" style="stroke: #000000; stroke-width: 0.8"/>
      </g>
     </g>
     <g id="text_10">
      <!-- 3 -->
      <g transform="translate(44.2375 57.367219) scale(0.1 -0.1)">
       <use xlink:href="#DejaVuSans-33"/>
      </g>
     </g>
    </g>
   </g>
   <g id="patch_3">
    <path d="M 57.6 307.584 
L 57.6 41.472 
" style="fill: none; stroke: #000000; stroke-width: 0.8; stroke-linejoin: miter; stroke-linecap: square"/>
   </g>
   <g id="patch_4">
    <path d="M 219.927273 307.584 
L 219.927273 41.472 
" style="fill: none; stroke: #000000; stroke-width: 0.8; stroke-linejoin: miter; stroke-linecap: square"/>
   </g>
   <g id="patch_5">
    <path d="M 57.6 307.584 
L 219.927273 307.584 
" style="fill: none; stroke: #000000; stroke-width: 0.8; stroke-linejoin: miter; stroke-linecap: square"/>
   </g>
   <g id="patch_6">
    <path d="M 57.6 41.472 
L 219.927273 41.472 
" style="fill: none; stroke: #000000; stroke-width: 0.8; stroke-linejoin: miter; stroke-linecap: square"/>
   </g>
  </g>
  <g id="axes_2">
   <g id="patch_7">
    <path d="M 252.392727 307.584 
L 414.72 307.584 
L 414.72 41.472 
L 252.392727 41.472 
z
" style="fill: #ffffff"/>
   </g>
   <g id="matplotlib.axis_3">
    <g id="xtick_4">
     <g id="line2d_11">
      <g>
       <use xlink:href="#m1c12df62c9" x="252.392727" y="307.584" style="stroke: #000000; stroke-width: 0.8"/>
      </g>
     </g>
     <g id="text_11">
      <!-- −1 -->
      <g transform="translate(245.021634 322.182437) scale(0.1 -0.1)">
       <use xlink:href="#DejaVuSans-2212"/>
       <use xlink:href="#DejaVuSans-31" x="83.789062"/>
      </g>
     </g>
    </g>
    <g id="xtick_5">
     <g id="line2d_12">
      <g>
       <use xlink:href="#m1c12df62c9" x="292.974545" y="307.584" style="stroke: #000000; stroke-width: 0.8"/>
      </g>
     </g>
     <g id="text_12">
      <!-- 0 -->
      <g transform="translate(289.793295 322.182437) scale(0.1 -0.1)">
       <use xlink:href="#DejaVuSans-30"/>
      </g>
     </g>
    </g>
    <g id="xtick_6">
     <g id="line2d_13">
      <g>
       <use xlink:href="#m1c12df62c9" x="333.556364" y="307.584" style="stroke: #000000; stroke-width: 0.8"/>
      </g>
     </g>
     <g id="text_13">
      <!-- 1 -->
      <g transform="translate(330.375114 322.182437) scale(0.1 -0.1)">
       <use xlink:href="#DejaVuSans-31"/>
      </g>
     </g>
    </g>
    <g id="xtick_7">
     <g id="line2d_14">
      <g>
       <use xlink:href="#m1c12df62c9" x="374.138182" y="307.584" style="stroke: #000000; stroke-width: 0.8"/>
      </g>
     </g>
     <g id="text_14">
      <!-- 2 -->
      <g transform="translate(370.956932 322.182437) scale(0.1 -0.1)">
       <use xlink:href="#DejaVuSans-32"/>
      </g>
     </g>
    </g>
    <g id="xtick_8">
     <g id="line2d_15">
      <g>
       <use xlink:href="#m1c12df62c9" x="414.72" y="307.584" style="stroke: #000000; stroke-width: 0.8"/>
      </g>
     </g>
     <g id="text_15">
      <!-- 3 -->
      <g transform="translate(411.53875 322.182437) scale(0.1 -0.1)">
       <use xlink:href="#DejaVuSans-33"/>
      </g>
     </g>
    </g>
   </g>
   <g id="matplotlib.axis_4">
    <g id="ytick_8">
     <g id="line2d_16">
      <g>
       <use xlink:href="#m4865c8875f" x="252.392727" y="307.584" style="stroke: #000000; stroke-width: 0.8"/>
      </g>
     </g>
     <g id="text_16">
      <!-- −3.0 -->
      <g transform="translate(221.109915 311.383219) scale(0.1 -0.1)">
       <defs>
        <path id="DejaVuSans-2e" d="M 684 794 
L 1344 794 
L 1344 0 
L 684 0 
L 684 794 
z
" transform="scale(0.015625)"/>
       </defs>
       <use xlink:href="#DejaVuSans-2212"/>
       <use xlink:href="#DejaVuSans-33" x="83.789062"/>
       <use xlink:href="#DejaVuSans-2e" x="147.412109"/>
       <use xlink:href="#DejaVuSans-30" x="179.199219"/>
      </g>
     </g>
    </g>
    <g id="ytick_9">
     <g id="line2d_17">
      <g>
       <use xlink:href="#m4865c8875f" x="252.392727" y="274.32" style="stroke: #000000; stroke-width: 0.8"/>
      </g>
     </g>
     <g id="text_17">
      <!-- −2.5 -->
      <g transform="translate(221.109915 278.119219) scale(0.1 -0.1)">
       <defs>
        <path id="DejaVuSans-35" d="M 691 4666 
L 3169 4666 
L 3169 4134 
L 1269 4134 
L 1269 2991 
Q 1406 3038 1543 3061 
Q 1681 3084 1819 3084 
Q 2600 3084 3056 2656 
Q 3513 2228 3513 1497 
Q 3513 744 3044 326 
Q 2575 -91 1722 -91 
Q 1428 -91 1123 -41 
Q 819 9 494 109 
L 494 744 
Q 775 591 1075 516 
Q 1375 441 1709 441 
Q 2250 441 2565 725 
Q 2881 1009 2881 1497 
Q 2881 1984 2565 2268 
Q 2250 2553 1709 2553 
Q 1456 2553 1204 2497 
Q 953 2441 691 2322 
L 691 4666 
z
" transform="scale(0.015625)"/>
       </defs>
       <use xlink:href="#DejaVuSans-2212"/>
       <use xlink:href="#DejaVuSans-32" x="83.789062"/>
       <use xlink:href="#DejaVuSans-2e" x="147.412109"/>
       <use xlink:href="#DejaVuSans-35" x="179.199219"/>
      </g>
     </g>
    </g>
    <g id="ytick_10">
     <g id="line2d_18">
      <g>
       <use xlink:href="#m4865c8875f" x="252.392727" y="241.056" style="stroke: #000000; stroke-width: 0.8"/>
      </g>
     </g>
     <g id="text_18">
      <!-- −2.0 -->
      <g transform="translate(221.109915 244.855219) scale(0.1 -0.1)">
       <use xlink:href="#DejaVuSans-2212"/>
       <use xlink:href="#DejaVuSans-32" x="83.789062"/>
       <use xlink:href="#DejaVuSans-2e" x="147.412109"/>
       <use xlink:href="#DejaVuSans-30" x="179.199219"/>
      </g>
     </g>
    </g>
    <g id="ytick_11">
     <g id="line2d_19">
      <g>
       <use xlink:href="#m4865c8875f" x="252.392727" y="207.792" style="stroke: #000000; stroke-width: 0.8"/>
      </g>
     </g>
     <g id="text_19">
      <!-- −1.5 -->
      <g transform="translate(221.109915 211.591219) scale(0.1 -0.1)">
       <use xlink:href="#DejaVuSans-2212"/>
       <use xlink:href="#DejaVuSans-31" x="83.789062"/>
       <use xlink:href="#DejaVuSans-2e" x="147.412109"/>
       <use xlink:href="#DejaVuSans-35" x="179.199219"/>
      </g>
     </g>
    </g>
    <g id="ytick_12">
     <g id="line2d_20">
      <g>
       <use xlink:href="#m4865c8875f" x="252.392727" y="174.528" style="stroke: #000000; stroke-width: 0.8"/>
      </g>
     </g>
     <g id="text_20">
      <!-- −1.0 -->
      <g transform="translate(221.109915 178.327219) scale(0.1 -0.1)">
       <use xlink:href="#DejaVuSans-2212"/>
       <use xlink:href="#DejaVuSans-31" x="83.789062"/>
       <use xlink:href="#DejaVuSans-2e" x="147.412109"/>
       <use xlink:href="#DejaVuSans-30" x="179.199219"/>
      </g>
     </g>
    </g>
    <g id="ytick_13">
     <g id="line2d_21">
      <g>
       <use xlink:href="#m4865c8875f" x="252.392727" y="141.264" style="stroke: #000000; stroke-width: 0.8"/>
      </g>
     </g>
     <g id="text_21">
      <!-- −0.5 -->
      <g transform="translate(221.109915 145.063219) scale(0.1 -0.1)">
       <use xlink:href="#DejaVuSans-2212"/>
       <use xlink:href="#DejaVuSans-30" x="83.789062"/>
       <use xlink:href="#DejaVuSans-2e" x="147.412109"/>
       <use xlink:href="#DejaVuSans-35" x="179.199219"/>
      </g>
     </g>
    </g>
    <g id="ytick_14">
     <g id="line2d_22">
      <g>
       <use xlink:href="#m4865c8875f" x="252.392727" y="108" style="stroke: #000000; stroke-width: 0.8"/>
      </g>
     </g>
     <g id="text_22">
      <!-- 0.0 -->
      <g transform="translate(229.489602 111.799219) scale(0.1 -0.1)">
       <use xlink:href="#DejaVuSans-30"/>
       <use xlink:href="#DejaVuSans-2e" x="63.623047"/>
       <use xlink:href="#DejaVuSans-30" x="95.410156"/>
      </g>
     </g>
    </g>
    <g id="ytick_15">
     <g id="line2d_23">
      <g>
       <use xlink:href="#m4865c8875f" x="252.392727" y="74.736" style="stroke: #000000; stroke-width: 0.8"/>
      </g>
     </g>
     <g id="text_23">
      <!-- 0.5 -->
      <g transform="translate(229.489602 78.535219) scale(0.1 -0.1)">
       <use xlink:href="#DejaVuSans-30"/>
       <use xlink:href="#DejaVuSans-2e" x="63.623047"/>
       <use xlink:href="#DejaVuSans-35" x="95.410156"/>
      </g>
     </g>
    </g>
    <g id="ytick_16">
     <g id="line2d_24">
      <g>
       <use xlink:href="#m4865c8875f" x="252.392727" y="41.472" style="stroke: #000000; stroke-width: 0.8"/>
      </g>
     </g>
     <g id="text_24">
      <!-- 1.0 -->
      <g transform="translate(229.489602 45.271219) scale(0.1 -0.1)">
       <use xlink:href="#DejaVuSans-31"/>
       <use xlink:href="#DejaVuSans-2e" x="63.623047"/>
       <use xlink:href="#DejaVuSans-30" x="95.410156"/>
      </g>
     </g>
    </g>
   </g>
   <g id="line2d_25">
    <path d="M 304.374414 346.6 
L 305.067107 331.263458 
L 307.075702 299.461395 
L 309.084298 275.589618 
L 311.092893 257.010679 
L 313.101488 242.139959 
L 315.110083 229.968 
L 317.118678 219.821256 
L 319.127273 211.233103 
L 321.135868 203.870044 
L 323.144463 197.487391 
L 325.153058 191.901554 
L 327.161653 186.972086 
L 329.170248 182.589717 
L 331.178843 178.668155 
L 333.187438 175.138349 
L 335.196033 171.944388 
L 337.204628 169.040519 
L 339.213223 166.388936 
L 341.221818 163.958131 
L 343.230413 161.721631 
L 345.239008 159.657035 
L 347.247603 157.745257 
L 349.256198 155.969934 
L 351.264793 154.316962 
L 353.273388 152.774113 
L 355.281983 151.330737 
L 357.290579 149.977514 
L 359.299174 148.706255 
L 361.307769 147.50973 
L 363.316364 146.381538 
L 365.324959 145.315989 
L 367.333554 144.308004 
L 369.342149 143.353043 
L 371.350744 142.447029 
L 373.359339 141.586293 
L 375.367934 140.767522 
L 377.376529 139.987722 
L 379.385124 139.244175 
L 381.393719 138.534409 
L 383.402314 137.856174 
L 385.410909 137.207415 
L 387.419504 136.58625 
L 389.428099 135.990956 
L 391.436694 135.41995 
L 393.445289 134.871775 
L 395.453884 134.345088 
L 397.462479 133.83865 
L 399.471074 133.351316 
L 401.479669 132.882025 
L 403.488264 132.429792 
L 405.49686 131.993705 
L 407.505455 131.572913 
L 409.51405 131.166627 
L 411.522645 130.774108 
L 413.53124 130.394668 
L 415.539835 130.027666 
L 417.54843 129.672498 
L 419.557025 129.328601 
L 421.56562 128.995448 
L 423.574215 128.672542 
L 425.58281 128.359419 
L 427.591405 128.055639 
L 429.6 127.760792 
L 431.608595 127.474488 
L 433.61719 127.196363 
L 435.625785 126.926069 
L 437.63438 126.663281 
L 439.642975 126.407691 
L 441.65157 126.159007 
L 443.660165 125.916953 
L 445.66876 125.681267 
L 447.677355 125.451701 
L 449.68595 125.22802 
L 451.694545 125.01 
L 453.70314 124.797429 
L 455.711736 124.590106 
L 457.720331 124.387838 
L 459.728926 124.190442 
L 461.737521 123.997746 
L 461.8 123.991893 
" clip-path="url(#pf6133a597b)" style="fill: none; stroke: #1f77b4; stroke-width: 1.5; stroke-linecap: square"/>
   </g>
   <g id="line2d_26">
    <path d="M 315.638226 346.6 
L 317.118678 331.642513 
L 319.127273 314.466207 
L 321.135868 299.740087 
L 323.144463 286.974783 
L 325.153058 275.803108 
L 327.161653 265.944173 
L 329.170248 257.179434 
L 331.178843 249.336309 
L 333.187438 242.276697 
L 335.196033 235.888777 
L 337.204628 230.081038 
L 339.213223 224.777872 
L 341.221818 219.916262 
L 343.230413 215.443263 
L 345.239008 211.314071 
L 347.247603 207.490514 
L 349.256198 203.939869 
L 351.264793 200.633924 
L 353.273388 197.548226 
L 355.281983 194.661474 
L 357.290579 191.955029 
L 359.299174 189.412509 
L 361.307769 187.01946 
L 363.316364 184.763077 
L 365.324959 182.631977 
L 367.333554 180.616009 
L 369.342149 178.706087 
L 371.350744 176.894059 
L 373.359339 175.172585 
L 375.367934 173.535045 
L 377.376529 171.975444 
L 379.385124 170.488349 
L 381.393719 169.068818 
L 383.402314 167.712348 
L 385.410909 166.414829 
L 387.419504 165.1725 
L 389.428099 163.981912 
L 391.436694 162.8399 
L 393.445289 161.74355 
L 395.453884 160.690176 
L 397.462479 159.677301 
L 399.471074 158.702633 
L 401.479669 157.76405 
L 403.488264 156.859585 
L 405.49686 155.98741 
L 407.505455 155.145827 
L 409.51405 154.333254 
L 411.522645 153.548216 
L 413.53124 152.789337 
L 415.539835 152.055331 
L 417.54843 151.344995 
L 419.557025 150.657202 
L 421.56562 149.990896 
L 423.574215 149.345085 
L 425.58281 148.718838 
L 427.591405 148.111279 
L 429.6 147.521584 
L 431.608595 146.948977 
L 433.61719 146.392725 
L 435.625785 145.852138 
L 437.63438 145.326563 
L 439.642975 144.815383 
L 441.65157 144.318015 
L 443.660165 143.833906 
L 445.66876 143.362534 
L 447.677355 142.903402 
L 449.68595 142.45604 
L 451.694545 142.02 
L 453.70314 141.594858 
L 455.711736 141.180212 
L 457.720331 140.775676 
L 459.728926 140.380885 
L 461.737521 139.995492 
L 461.8 139.983786 
" clip-path="url(#pf6133a597b)" style="fill: none; stroke: #ff7f0e; stroke-width: 1.5; stroke-linecap: square"/>
   </g>
   <g id="line2d_27">
    <path d="M 298.747854 346.6 
L 299.041322 330.509189 
L 301.049917 275.164264 
L 303.058512 241.867317 
L 305.067107 219.631729 
L 307.075702 203.730698 
L 309.084298 191.794809 
L 311.092893 182.505339 
L 313.101488 175.06998 
L 315.110083 168.984 
L 317.118678 163.910628 
L 319.127273 159.616552 
L 321.135868 155.935022 
L 323.144463 152.743696 
L 325.153058 149.950777 
L 327.161653 147.486043 
L 329.170248 145.294858 
L 331.178843 143.334077 
L 333.187438 141.569174 
L 335.196033 139.972194 
L 337.204628 138.520259 
L 339.213223 137.194468 
L 341.221818 135.979065 
L 343.230413 134.860816 
L 345.239008 133.828518 
L 347.247603 132.872628 
L 349.256198 131.984967 
L 351.264793 131.158481 
L 353.273388 130.387056 
L 355.281983 129.665368 
L 357.290579 128.988757 
L 359.299174 128.353127 
L 361.307769 127.754865 
L 363.316364 127.190769 
L 365.324959 126.657994 
L 367.333554 126.154002 
L 369.342149 125.676522 
L 371.350744 125.223515 
L 373.359339 124.793146 
L 375.367934 124.383761 
L 377.376529 123.993861 
L 379.385124 123.622087 
L 381.393719 123.267204 
L 383.402314 122.928087 
L 385.410909 122.603707 
L 387.419504 122.293125 
L 389.428099 121.995478 
L 391.436694 121.709975 
L 393.445289 121.435887 
L 395.453884 121.172544 
L 397.462479 120.919325 
L 399.471074 120.675658 
L 401.479669 120.441012 
L 403.488264 120.214896 
L 405.49686 119.996852 
L 407.505455 119.786457 
L 409.51405 119.583313 
L 411.522645 119.387054 
L 413.53124 119.197334 
L 415.539835 119.013833 
L 417.54843 118.836249 
L 419.557025 118.664301 
L 421.56562 118.497724 
L 423.574215 118.336271 
L 425.58281 118.179709 
L 427.591405 118.02782 
L 429.6 117.880396 
L 431.608595 117.737244 
L 433.61719 117.598181 
L 435.625785 117.463034 
L 437.63438 117.331641 
L 439.642975 117.203846 
L 441.65157 117.079504 
L 443.660165 116.958477 
L 445.66876 116.840634 
L 447.677355 116.725851 
L 449.68595 116.61401 
L 451.694545 116.505 
L 453.70314 116.398715 
L 455.711736 116.295053 
L 457.720331 116.193919 
L 459.728926 116.095221 
L 461.737521 115.998873 
L 461.8 115.995946 
" clip-path="url(#pf6133a597b)" style="fill: none; stroke: #2ca02c; stroke-width: 1.5; stroke-linecap: square"/>
   </g>
   <g id="line2d_28">
    <path d="M 304.374414 346.6 
L 305.067107 331.263458 
L 307.075702 299.461395 
L 309.084298 275.589618 
L 311.092893 257.010679 
L 313.101488 242.139959 
L 315.110083 229.968 
L 317.118678 219.821256 
L 319.127273 211.233103 
L 321.135868 203.870044 
L 323.144463 197.487391 
L 325.153058 191.901554 
L 327.161653 186.972086 
L 329.170248 182.589717 
L 331.178843 178.668155 
L 333.187438 175.138349 
L 335.196033 171.944388 
L 337.204628 169.040519 
L 339.213223 166.388936 
L 341.221818 163.958131 
L 343.230413 161.721631 
L 345.239008 159.657035 
L 347.247603 157.745257 
L 349.256198 155.969934 
L 351.264793 154.316962 
L 353.273388 152.774113 
L 355.281983 151.330737 
L 357.290579 149.977514 
L 359.299174 148.706255 
L 361.307769 147.50973 
L 363.316364 146.381538 
L 365.324959 145.315989 
L 367.333554 144.308004 
L 369.342149 143.353043 
L 371.350744 142.447029 
L 373.359339 141.586293 
L 375.367934 140.767522 
L 377.376529 139.987722 
L 379.385124 139.244175 
L 381.393719 138.534409 
L 383.402314 137.856174 
L 385.410909 137.207415 
L 387.419504 136.58625 
L 389.428099 135.990956 
L 391.436694 135.41995 
L 393.445289 134.871775 
L 395.453884 134.345088 
L 397.462479 133.83865 
L 399.471074 133.351316 
L 401.479669 132.882025 
L 403.488264 132.429792 
L 405.49686 131.993705 
L 407.505455 131.572913 
L 409.51405 131.166627 
L 411.522645 130.774108 
L 413.53124 130.394668 
L 415.539835 130.027666 
L 417.54843 129.672498 
L 419.557025 129.328601 
L 421.56562 128.995448 
L 423.574215 128.672542 
L 425.58281 128.359419 
L 427.591405 128.055639 
L 429.6 127.760792 
L 431.608595 127.474488 
L 433.61719 127.196363 
L 435.625785 126.926069 
L 437.63438 126.663281 
L 439.642975 126.407691 
L 441.65157 126.159007 
L 443.660165 125.916953 
L 445.66876 125.681267 
L 447.677355 125.451701 
L 449.68595 125.22802 
L 451.694545 125.01 
L 453.70314 124.797429 
L 455.711736 124.590106 
L 457.720331 124.387838 
L 459.728926 124.190442 
L 461.737521 123.997746 
L 461.8 123.991893 
" clip-path="url(#pf6133a597b)" style="fill: none; stroke: #d62728; stroke-width: 1.5; stroke-linecap: square"/>
   </g>
   <g id="patch_8">
    <path d="M 252.392727 307.584 
L 252.392727 41.472 
" style="fill: none; stroke: #000000; stroke-width: 0.8; stroke-linejoin: miter; stroke-linecap: square"/>
   </g>
   <g id="patch_9">
    <path d="M 414.72 307.584 
L 414.72 41.472 
" style="fill: none; stroke: #000000; stroke-width: 0.8; stroke-linejoin: miter; stroke-linecap: square"/>
   </g>
   <g id="patch_10">
    <path d="M 252.392727 307.584 
L 414.72 307.584 
" style="fill: none; stroke: #000000; stroke-width: 0.8; stroke-linejoin: miter; stroke-linecap: square"/>
   </g>
   <g id="patch_11">
    <path d="M 252.392727 41.472 
L 414.72 41.472 
" style="fill: none; stroke: #000000; stroke-width: 0.8; stroke-linejoin: miter; stroke-linecap: square"/>
   </g>
  </g>
  <g id="text_25">
   <!-- t = 0.4400000000000002 -->
   <g transform="translate(152.401875 16.030125) scale(0.12 -0.12)">
    <defs>
     <path id="DejaVuSans-74" d="M 1172 4494 
L 1172 3500 
L 2356 3500 
L 2356 3053 
L 1172 3053 
L 1172 1153 
Q 1172 725 1289 603 
Q 1406 481 1766 481 
L 2356 481 
L 2356 0 
L 1766 0 
Q 1100 0 847 248 
Q 594 497 594 1153 
L 594 3053 
L 172 3053 
L 172 3500 
L 594 3500 
L 594 4494 
L 1172 4494 
z
" transform="scale(0.015625)"/>
     <path id="DejaVuSans-20" transform="scale(0.015625)"/>
     <path id="DejaVuSans-3d" d="M 678 2906 
L 4684 2906 
L 4684 2381 
L 678 2381 
L 678 2906 
z
M 678 1631 
L 4684 1631 
L 4684 1100 
L 678 1100 
L 678 1631 
z
" transform="scale(0.015625)"/>
     <path id="DejaVuSans-34" d="M 2419 4116 
L 825 1625 
L 2419 1625 
L 2419 4116 
z
M 2253 4666 
L 3047 4666 
L 3047 1625 
L 3713 1625 
L 3713 1100 
L 3047 1100 
L 3047 0 
L 2419 0 
L 2419 1100 
L 313 1100 
L 313 1709 
L 2253 4666 
z
" transform="scale(0.015625)"/>
    </defs>
    <use xlink:href="#DejaVuSans-74"/>
    <use xlink:href="#DejaVuSans-20" x="39.208984"/>
    <use xlink:href="#DejaVuSans-3d" x="70.996094"/>
    <use xlink:href="#DejaVuSans-20" x="154.785156"/>
    <use xlink:href="#DejaVuSans-30" x="186.572266"/>
    <use xlink:href="#DejaVuSans-2e" x="250.195312"/>
    <use xlink:href="#DejaVuSans-34" x="281.982422"/>
    <use xlink:href="#DejaVuSans-34" x="345.605469"/>
    <use xlink:href="#DejaVuSans-30" x="409.228516"/>
    <use xlink:href="#DejaVuSans-30" x="472.851562"/>
    <use xlink:href="#DejaVuSans-30" x="536.474609"/>
    <use xlink:href="#DejaVuSans-30" x="600.097656"/>
    <use xlink:href="#DejaVuSans-30" x="663.720703"/>
    <use xlink:href="#DejaVuSans-30" x="727.34375"/>
    <use xlink:href="#DejaVuSans-30" x="790.966797"/>
    <use xlink:href="#DejaVuSans-30" x="854.589844"/>
    <use xlink:href="#DejaVuSans-30" x="918.212891"/>
    <use xlink:href="#DejaVuSans-30" x="981.835938"/>
    <use xlink:href="#DejaVuSans-30" x="1045.458984"/>
    <use xlink:href="#DejaVuSans-30" x="1109.082031"/>
    <use xlink:href="#DejaVuSans-30" x="1172.705078"/>
    <use xlink:href="#DejaVuSans-32" x="1236.328125"/>
   </g>
  </g>
 </g>
 <defs>
  <clipPath id="p186403ef14">
   <rect x="57.6" y="41.472" width="162.327273" height="266.112"/>
  </clipPath>
  <clipPath id="pf6133a597b">
   <rect x="252.392727" y="41.472" width="162.327273" height="266.112"/>
  </clipPath>
 </defs>
</svg>
